<?xml version="1.0" standalone="no"?>
<!DOCTYPE svg PUBLIC "-//W3C//DTD SVG 20010904//EN"
 "http://www.w3.org/TR/2001/REC-SVG-20010904/DTD/svg10.dtd">
<svg version="1.0" xmlns="http://www.w3.org/2000/svg"
 width="300.000000pt" height="223.000000pt" viewBox="0 0 300.000000 223.000000"
 preserveAspectRatio="xMidYMid meet">
<metadata>
Created by potrace 1.10, written by Peter Selinger 2001-2011
</metadata>
<g transform="translate(0.000000,223.000000) scale(0.100000,-0.100000)"
fill="#ffffff" stroke="none">
<path d="M435 1817 c-3 -6 -4 -167 -3 -356 2 -265 6 -345 16 -349 9 -3 12 70
12 345 l0 348 447 0 c348 0 447 3 450 13 7 18 -915 18 -922 -1z"/>
<path d="M815 1144 c-110 -245 -201 -450 -203 -455 -2 -5 34 -9 80 -9 l84 0
44 105 45 105 228 -2 229 -3 43 -100 44 -100 87 -3 c68 -2 85 0 81 10 -3 7
-37 83 -76 168 -38 85 -127 283 -198 440 l-128 285 -80 3 -80 2 -200 -446z
m342 404 c6 -7 38 -76 73 -153 34 -77 85 -189 112 -250 27 -60 57 -126 65
-145 9 -19 42 -93 74 -163 l57 -128 -56 3 -56 3 -36 82 c-57 133 -33 123 -294
123 -199 0 -226 -2 -244 -17 -11 -10 -37 -57 -57 -105 l-37 -88 -49 0 c-54 0
-57 5 -32 53 9 18 18 37 19 42 4 19 325 729 336 742 14 17 112 17 125 1z"/>
<path d="M1068 1413 c-14 -16 -58 -105 -58 -116 0 -3 -17 -43 -39 -89 -66
-144 -76 -177 -60 -194 20 -19 342 -23 364 -4 19 16 18 19 -67 215 -94 217
-104 229 -140 188z m170 -325 l31 -68 -175 0 c-96 0 -174 1 -174 3 0 2 8 21
19 43 22 47 135 311 145 339 5 14 21 -14 65 -115 32 -74 72 -165 89 -202z"/>
<path d="M1867 1579 c-85 -20 -154 -70 -191 -140 -51 -93 -32 -219 43 -282 37
-31 108 -58 255 -98 173 -47 206 -69 206 -137 0 -44 -42 -86 -101 -102 -96
-26 -288 6 -362 61 -16 11 -31 19 -34 16 -2 -3 -17 -32 -33 -66 l-29 -60 62
-30 c95 -47 178 -65 292 -65 171 0 284 51 337 153 47 90 32 208 -33 268 -38
35 -127 71 -253 103 -181 47 -216 70 -216 145 0 121 247 154 409 55 18 -12 34
-20 35 -18 1 2 14 33 28 70 l26 66 -57 26 c-31 13 -76 29 -101 35 -54 13 -230
13 -283 0z m308 -41 c91 -27 97 -32 83 -66 -18 -42 -24 -45 -57 -28 -17 9 -34
17 -38 17 -5 1 -12 3 -18 4 -141 42 -294 18 -340 -52 -29 -44 -31 -98 -4 -137
20 -29 70 -64 104 -72 75 -17 250 -70 285 -85 87 -39 120 -87 121 -179 2 -141
-109 -226 -311 -236 -120 -5 -312 42 -327 82 -3 8 0 27 7 43 l12 29 56 -25
c84 -38 137 -50 231 -52 72 -2 90 1 138 24 102 50 124 142 49 209 -21 18 -77
46 -106 51 -8 2 -15 4 -15 5 0 1 -11 4 -25 6 -69 13 -229 67 -263 90 -63 41
-79 76 -75 166 3 66 7 82 33 118 75 106 276 144 460 88z"/>
<path d="M2610 815 l0 -365 -390 0 c-253 0 -390 -4 -390 -10 0 -7 142 -10 405
-10 l405 0 0 375 c0 327 -2 375 -15 375 -13 0 -15 -47 -15 -365z"/>
</g>
</svg>
