<?xml version="1.0" standalone="no"?>
<!DOCTYPE svg PUBLIC "-//W3C//DTD SVG 20010904//EN"
 "http://www.w3.org/TR/2001/REC-SVG-20010904/DTD/svg10.dtd">
<svg version="1.0" xmlns="http://www.w3.org/2000/svg"
 width="300.000000pt" height="324.000000pt" viewBox="0 0 300.000000 324.000000"
 preserveAspectRatio="xMidYMid meet">
<metadata>
Created by potrace 1.10, written by Peter Selinger 2001-2011
</metadata>
<g transform="translate(0.000000,324.000000) scale(0.100000,-0.100000)"
fill="#ffffff" stroke="none">
<path d="M2430 3116 c-313 -110 -636 -453 -681 -724 -5 -32 -6 -83 -3 -114 4
-32 3 -58 0 -58 -4 0 -64 -9 -134 -19 -85 -13 -176 -19 -277 -19 -93 1 -161
-3 -178 -11 l-29 -11 9 32 c4 18 8 85 7 148 0 97 -5 128 -28 200 -15 46 -35
98 -43 115 -29 56 -111 159 -185 232 l-73 72 -90 -20 c-182 -39 -235 -60 -303
-122 -92 -86 -124 -170 -98 -259 8 -29 26 -66 39 -82 l23 -28 13 43 c17 58 54
132 99 198 l37 54 6 -104 c7 -119 30 -193 99 -313 40 -69 191 -256 208 -256 4
0 15 -7 25 -14 17 -13 16 -17 -27 -62 -25 -26 -46 -52 -46 -57 0 -6 28 19 62
54 69 71 122 105 232 146 66 24 87 27 301 34 127 4 250 12 275 18 73 16 140
13 236 -13 112 -31 149 -45 197 -75 44 -27 111 -108 132 -158 8 -18 21 -33 29
-33 21 0 20 10 -6 60 -52 96 -140 172 -224 190 -26 6 -53 15 -59 19 -14 12
-147 41 -184 41 l-31 0 0 78 c0 155 74 314 227 489 130 148 367 302 506 328
20 4 37 11 37 16 0 14 -30 10 -100 -15z m-1534 -278 c113 -116 156 -180 196
-294 25 -72 32 -109 35 -194 2 -58 0 -125 -4 -149 -8 -40 -11 -44 -58 -62 -28
-11 -56 -17 -63 -14 -7 3 -10 1 -7 -5 8 -13 -33 -33 -48 -23 -45 27 -86 72
-93 101 -3 15 -9 41 -13 57 -5 17 -9 62 -10 102 -2 63 0 73 20 86 24 18 40 14
87 -21 51 -38 81 -108 84 -189 1 -37 -2 -76 -6 -85 -5 -11 -4 -18 1 -18 16 0
33 49 33 95 0 73 -36 154 -92 207 -47 44 -88 66 -88 48 0 -4 -8 -6 -19 -3 -15
4 -22 -5 -36 -42 -17 -44 -17 -50 0 -151 20 -117 41 -159 93 -185 27 -14 30
-18 18 -29 -25 -20 -52 -3 -131 83 -167 180 -240 337 -246 525 -3 84 2 92 129
193 101 81 106 80 218 -33z m-221 48 c-108 -73 -236 -234 -271 -339 -23 -71
-25 -73 -41 -43 -82 157 36 330 271 397 89 26 97 23 41 -15z"/>
<path d="M2540 3129 c0 -3 9 -45 20 -95 28 -125 27 -291 -1 -396 -37 -137
-167 -325 -309 -447 -37 -32 -74 -61 -81 -63 -20 -7 -2 -38 23 -38 38 0 223
199 289 310 96 165 119 244 119 421 0 95 -27 258 -49 296 -6 10 -11 16 -11 12z"/>
<path d="M2083 2506 c-75 -36 -118 -81 -149 -156 -16 -38 -15 -131 2 -137 6
-2 8 10 6 31 -7 57 24 140 68 186 22 23 40 39 40 35 0 -3 12 2 28 12 32 23
114 55 120 48 3 -3 0 -5 -8 -5 -10 0 -10 -3 1 -16 7 -9 12 -32 11 -52 -3 -50
-32 -152 -43 -152 -5 0 -9 -7 -9 -16 0 -8 -21 -35 -47 -59 -54 -51 -51 -73 5
-29 52 42 96 134 112 232 7 45 10 88 6 97 -9 25 -66 17 -143 -19z"/>
<path d="M1868 2164 c-5 -4 -8 -16 -8 -28 0 -14 3 -17 11 -9 6 6 9 19 7 28 -1
9 -6 13 -10 9z"/>
<path d="M2016 2104 c-3 -9 -6 -24 -6 -35 0 -11 -15 -29 -35 -41 -34 -23 -45
-38 -25 -38 17 0 30 -38 24 -69 -4 -19 -18 -38 -38 -51 -17 -11 -26 -20 -20
-20 18 0 31 -42 27 -85 -3 -30 -2 -36 6 -25 6 8 11 23 11 33 0 11 9 32 21 48
16 22 18 33 10 43 -21 26 21 139 44 118 5 -4 4 2 0 13 -11 26 -12 74 -2 103 9
25 -7 31 -17 6z m-6 -118 c-15 -15 -33 4 -19 20 10 12 14 12 20 2 5 -7 4 -17
-1 -22z m-30 -134 c0 -13 -12 -22 -22 -16 -10 6 -1 24 13 24 5 0 9 -4 9 -8z"/>
<path d="M1843 2102 c-8 -5 -8 -12 2 -25 12 -16 13 -16 19 -1 8 21 -5 36 -21
26z"/>
<path d="M990 2055 c0 -18 19 -40 26 -32 4 4 0 15 -9 24 -9 10 -17 13 -17 8z"/>
<path d="M1840 2019 c0 -11 5 -17 10 -14 6 3 10 13 10 21 0 8 -4 14 -10 14 -5
0 -10 -9 -10 -21z"/>
<path d="M1884 2019 c-8 -14 11 -33 25 -25 11 7 4 36 -9 36 -5 0 -12 -5 -16
-11z"/>
<path d="M1016 1994 c-3 -9 -6 -17 -6 -18 0 -1 10 -2 21 -3 12 -1 19 1 15 4
-3 3 -1 12 5 20 9 10 7 13 -9 13 -11 0 -23 -7 -26 -16z"/>
<path d="M2175 1984 c-15 -11 -20 -28 -21 -69 -2 -46 -6 -58 -30 -79 l-29 -25
20 -20 c20 -20 20 -20 45 -1 23 18 24 20 9 36 -16 15 -16 19 1 56 10 22 24 44
31 48 9 6 10 17 3 39 -8 28 -10 29 -29 15z m-25 -173 c0 -6 -4 -13 -10 -16 -5
-3 -10 1 -10 9 0 9 5 16 10 16 6 0 10 -4 10 -9z"/>
<path d="M1827 1976 c-3 -8 1 -20 9 -26 11 -10 14 -9 14 4 0 9 0 19 1 23 1 14
-19 14 -24 -1z"/>
<path d="M2070 1970 c0 -13 5 -20 13 -17 6 2 12 10 12 17 0 7 -6 15 -12 18 -8
2 -13 -5 -13 -18z"/>
<path d="M1052 1948 c2 -6 10 -14 16 -16 7 -2 10 2 6 12 -7 18 -28 22 -22 4z"/>
<path d="M956 1864 c-10 -42 -20 -97 -21 -121 -3 -42 -6 -47 -44 -64 -63 -28
-160 -125 -188 -187 -13 -29 -21 -57 -19 -61 3 -4 -15 -13 -40 -20 -24 -7 -51
-23 -59 -34 -18 -26 -18 -23 0 88 12 79 25 111 102 264 93 183 104 208 79 177
-31 -38 -166 -315 -182 -372 -12 -42 -18 -124 -23 -289 -5 -188 -10 -236 -24
-264 -9 -19 -17 -37 -17 -41 0 -3 24 -14 53 -25 72 -25 230 -105 301 -153 57
-38 196 -168 196 -184 0 -4 13 -8 28 -8 53 0 144 74 249 203 30 38 31 39 56
22 17 -11 32 -14 44 -8 10 5 44 8 76 7 39 -1 63 3 72 13 12 12 18 12 38 -2 22
-14 25 -14 37 0 12 14 17 13 44 -13 91 -84 185 -145 226 -146 33 -1 35 1 60
61 58 143 156 172 219 64 11 -20 21 -30 21 -23 0 22 -33 72 -52 78 -24 7 -23
24 1 24 11 0 33 12 50 26 l31 26 52 -32 c29 -18 68 -46 86 -63 17 -17 32 -26
32 -21 0 17 -63 70 -114 97 l-49 26 29 11 c16 7 53 17 83 23 38 8 60 20 78 41
27 33 28 73 1 68 -24 -4 -24 34 2 123 30 105 27 197 -12 330 -31 106 -34 111
-95 172 -35 34 -72 81 -83 105 -10 24 -19 35 -19 25 -1 -19 33 -92 48 -101 13
-8 1 -56 -15 -56 -8 0 -14 -7 -14 -15 0 -9 6 -12 17 -8 13 5 15 2 10 -11 -4
-10 -7 -20 -7 -22 0 -2 -19 14 -41 36 -23 22 -64 48 -90 57 -46 17 -49 20 -43
45 3 17 1 28 -5 28 -6 0 -11 -10 -11 -23 0 -22 -3 -23 -60 -19 -69 5 -152 -18
-189 -51 -40 -37 -88 -146 -100 -227 -7 -41 -16 -92 -20 -112 -7 -28 -6 -38 3
-38 18 0 37 -45 24 -58 -6 -6 -6 -12 1 -16 6 -4 11 0 11 8 0 24 20 19 70 -14
68 -46 125 -70 167 -70 82 0 144 -12 139 -27 -3 -7 1 -16 9 -19 19 -8 45 13
39 30 -3 8 12 21 38 34 45 21 56 16 39 -16 -8 -15 -7 -23 4 -32 20 -16 19 -49
-2 -72 -13 -14 -14 -21 -5 -30 7 -7 12 -27 12 -45 0 -25 -5 -36 -22 -42 -13
-5 -34 -21 -47 -35 -18 -19 -34 -26 -63 -26 -47 0 -96 -20 -123 -50 l-20 -22
-7 24 c-7 19 -7 19 -4 -6 4 -29 -26 -132 -44 -150 -5 -5 -24 -1 -47 11 -57 30
-178 124 -178 139 0 7 -4 16 -8 20 -4 4 -7 2 -7 -4 0 -7 -4 -12 -10 -12 -5 0
-10 7 -10 15 0 18 -2 18 -34 4 -20 -9 -29 -9 -41 1 -13 11 -19 10 -33 -4 -23
-20 -28 -20 -36 0 -4 10 7 27 29 48 36 34 45 72 23 94 -17 17 -53 15 -68 -3
-11 -13 -14 -13 -27 0 -24 25 -62 19 -74 -12 -15 -39 -4 -68 35 -98 37 -28 41
-64 5 -45 -13 7 -24 7 -38 -2 -17 -10 -22 -9 -38 11 l-19 23 -104 -112 c-57
-61 -120 -120 -141 -130 l-37 -19 -79 78 c-104 104 -225 181 -388 246 -53 21
-79 37 -77 46 17 68 23 151 17 246 l-7 113 36 -15 c19 -8 44 -15 55 -15 12 0
26 -13 38 -37 22 -44 87 -87 164 -106 l54 -14 2 -54 c5 -92 24 -212 40 -242
l15 -30 13 24 c37 66 55 115 66 182 14 86 10 108 -22 100 -15 -4 -20 -3 -15 5
4 7 24 12 44 12 38 0 85 20 162 68 25 16 58 32 73 36 27 6 39 36 15 36 -21 -1
-94 -37 -142 -69 -43 -30 -150 -66 -166 -56 -4 3 -41 9 -81 15 -45 6 -99 22
-137 41 -63 31 -77 48 -89 109 -2 13 -10 28 -16 32 -9 6 -9 10 -1 16 6 4 14
30 18 57 4 28 16 69 27 91 27 57 117 139 186 172 51 24 70 27 158 26 113 0
146 -12 188 -67 44 -58 70 -150 76 -272 5 -94 9 -110 24 -113 15 -3 17 5 17
60 -1 158 -74 344 -152 384 -15 8 -28 21 -28 29 0 17 -16 20 -25 5 -3 -5 -29
-8 -58 -7 l-52 2 -3 42 c-1 23 -9 55 -17 70 -8 15 -15 34 -15 41 0 17 -29 72
-38 72 -4 0 -15 -34 -26 -76z m63 -106 c1 -13 -6 -18 -24 -18 -21 0 -25 5 -25
31 0 19 7 37 18 45 15 11 18 9 23 -14 4 -15 7 -35 8 -44z m-49 -48 c0 -5 -2
-10 -4 -10 -3 0 -8 5 -11 10 -3 6 -1 10 4 10 6 0 11 -4 11 -10z m1161 -29 c76
-29 116 -60 155 -119 39 -58 63 -139 64 -215 0 -33 5 -49 15 -54 23 -8 29 3
27 44 -3 32 -1 35 13 23 25 -21 36 5 28 65 -7 59 -13 71 -13 27 0 -17 -5 -34
-11 -37 -6 -5 -4 -11 7 -19 11 -9 13 -15 6 -20 -14 -8 -22 5 -49 83 -13 35
-33 78 -46 95 -25 33 -25 56 0 56 11 0 13 5 8 18 -4 9 -10 28 -13 42 l-5 25
33 -30 c44 -41 65 -85 89 -189 22 -92 25 -127 15 -188 -6 -33 -9 -37 -29 -32
-22 6 -45 -17 -45 -44 0 -16 33 -24 42 -10 13 21 9 26 -14 20 -14 -3 -19 -2
-14 6 10 17 46 15 46 -2 0 -7 -7 -33 -15 -56 -19 -55 -19 -130 0 -157 18 -25
12 -30 -60 -53 -22 -7 -46 -17 -52 -22 -9 -8 -12 -1 -11 26 1 20 4 39 8 41 7
4 4 165 -4 172 -2 2 15 22 38 43 33 31 38 41 29 51 -10 10 -18 8 -41 -14 -15
-15 -64 -42 -107 -60 -77 -33 -83 -34 -176 -28 -87 6 -102 10 -181 51 -63 32
-90 52 -103 76 -9 18 -15 36 -12 41 3 4 13 44 22 88 19 92 77 220 109 238 67
39 172 46 247 18z m-1481 -332 c0 -26 -3 -30 -22 -27 -41 6 -28 45 20 57 1 1
2 -13 2 -30z m1540 -229 c0 -5 -4 -10 -10 -10 -5 0 -10 5 -10 10 0 6 5 10 10
10 6 0 10 -4 10 -10z m-1195 -10 c-3 -5 -10 -10 -16 -10 -5 0 -9 5 -9 10 0 6
7 10 16 10 8 0 12 -4 9 -10z m34 -36 c5 -4 -19 -132 -32 -171 -18 -55 -31 -41
-42 43 -6 47 -5 48 9 24 8 -14 15 -20 16 -14 0 5 -7 19 -15 30 -8 10 -15 38
-15 62 l0 43 38 -7 c20 -4 39 -8 41 -10z m482 -127 c7 -10 21 -6 52 15 15 11
20 10 32 -5 17 -24 3 -59 -31 -78 -16 -8 -24 -21 -24 -40 0 -15 -4 -31 -10
-34 -6 -3 -10 4 -10 17 0 14 -13 34 -35 51 -34 27 -42 48 -29 81 7 18 43 13
55 -7z"/>
<path d="M2009 1562 c-15 -9 -54 -46 -87 -81 l-61 -65 31 -38 c70 -88 184
-116 270 -65 50 29 105 84 95 94 -4 3 -19 -4 -34 -18 -21 -19 -25 -20 -20 -6
4 10 7 33 7 50 l0 30 24 -23 c18 -16 30 -20 43 -15 16 8 16 9 -5 12 -13 3 -33
21 -48 44 -51 82 -156 121 -215 81z m109 -27 c83 -35 102 -86 62 -165 -22 -44
-37 -54 -92 -64 -53 -10 -112 11 -161 55 l-42 38 30 25 30 24 5 -43 c3 -23 12
-50 19 -59 21 -25 25 -12 7 23 -40 77 2 152 102 180 1 1 19 -6 40 -14z"/>
<path d="M2021 1493 c-1 -13 5 -23 13 -23 17 0 41 28 32 38 -4 4 -12 -2 -18
-13 -11 -19 -11 -19 -19 0 -7 19 -8 18 -8 -2z"/>
<path d="M2370 1536 c0 -9 5 -16 10 -16 6 0 10 4 10 9 0 6 -4 13 -10 16 -5 3
-10 -1 -10 -9z"/>
<path d="M2411 1333 c0 -5 4 -17 9 -28 8 -18 9 -17 9 8 1 15 -3 27 -9 27 -5 0
-10 -3 -9 -7z"/>
<path d="M2360 1140 c0 -5 5 -10 10 -10 6 0 10 5 10 10 0 6 -4 10 -10 10 -5 0
-10 -4 -10 -10z"/>
<path d="M2355 1030 c3 -5 10 -10 16 -10 5 0 9 5 9 10 0 6 -7 10 -16 10 -8 0
-12 -4 -9 -10z"/>
<path d="M1832 1910 c0 -14 2 -19 5 -12 2 6 2 18 0 25 -3 6 -5 1 -5 -13z"/>
<path d="M1070 1905 c0 -8 6 -15 14 -15 8 0 16 7 20 15 4 10 -1 15 -14 15 -11
0 -20 -7 -20 -15z"/>
<path d="M1096 1866 c3 -9 11 -16 16 -16 13 0 5 23 -10 28 -7 2 -10 -2 -6 -12z"/>
<path d="M2261 1853 c0 -25 1 -26 9 -8 12 27 12 35 0 35 -5 0 -10 -12 -9 -27z"/>
<path d="M1816 1862 c-2 -4 0 -14 5 -22 8 -13 10 -13 18 0 10 15 6 30 -9 30
-5 0 -11 -4 -14 -8z"/>
<path d="M1865 1861 c-7 -12 12 -24 25 -16 11 7 4 25 -10 25 -5 0 -11 -4 -15
-9z"/>
<path d="M2040 1835 c0 -8 5 -15 10 -15 6 0 10 7 10 15 0 8 -4 15 -10 15 -5 0
-10 -7 -10 -15z"/>
<path d="M1117 1821 c-3 -13 1 -21 14 -24 22 -6 26 15 5 32 -11 9 -15 7 -19
-8z"/>
<path d="M1820 1801 c0 -12 5 -21 10 -21 6 0 10 6 10 14 0 8 -4 18 -10 21 -5
3 -10 -3 -10 -14z"/>
<path d="M2207 1794 c-8 -8 1 -24 14 -24 5 0 9 7 9 15 0 15 -12 20 -23 9z"/>
<path d="M1152 1768 c2 -6 10 -14 16 -16 7 -2 10 2 6 12 -7 18 -28 22 -22 4z"/>
<path d="M1814 1762 c-9 -5 -8 -10 2 -19 9 -9 15 -10 20 -2 8 14 -8 30 -22 21z"/>
<path d="M1821 1704 c0 -11 3 -14 6 -6 3 7 2 16 -1 19 -3 4 -6 -2 -5 -13z"/>
<path d="M1811 1671 c-9 -6 -10 -11 -2 -15 13 -8 31 1 31 15 0 11 -11 11 -29
0z"/>
<path d="M930 1580 c-19 -10 -47 -31 -61 -47 -31 -32 -69 -101 -69 -122 0 -8
-6 -22 -14 -30 -13 -14 -7 -22 49 -66 98 -77 138 -95 210 -95 58 0 67 3 121
44 76 56 106 89 103 112 -2 11 0 24 4 31 4 7 -1 20 -12 30 -10 10 -36 38 -56
63 -61 73 -109 100 -180 100 -39 -1 -72 -7 -95 -20z m178 -40 c23 -16 46 -40
53 -52 7 -13 27 -38 45 -57 l32 -33 -61 -56 c-106 -94 -159 -103 -266 -47 -36
20 -76 43 -89 53 l-23 18 25 58 c14 32 29 55 34 52 5 -3 16 10 24 28 20 41 69
65 134 66 41 0 59 -6 92 -30z"/>
<path d="M1082 1480 c2 -14 10 -26 19 -28 20 -4 34 27 19 42 -7 7 -10 4 -10
-9 0 -18 0 -18 -15 1 -15 18 -15 18 -13 -6z"/>
<path d="M847 1437 c-5 -17 -2 -37 7 -55 17 -33 44 -58 53 -49 3 4 -5 15 -17
25 -15 12 -25 34 -29 63 -6 41 -7 42 -14 16z"/>
<path d="M1181 1425 c-1 -11 -12 -39 -26 -62 -13 -24 -20 -43 -16 -43 14 0 52
80 48 103 -4 19 -4 20 -6 2z"/>
<path d="M1270 1196 c0 -9 5 -16 10 -16 6 0 10 4 10 9 0 6 -4 13 -10 16 -5 3
-10 -1 -10 -9z"/>
<path d="M1752 1189 c2 -6 8 -10 13 -10 5 0 11 4 13 10 2 6 -4 11 -13 11 -9 0
-15 -5 -13 -11z"/>
<path d="M1270 1144 c0 -17 22 -14 28 4 2 7 -3 12 -12 12 -9 0 -16 -7 -16 -16z"/>
<path d="M1751 1144 c0 -11 3 -14 6 -6 3 7 2 16 -1 19 -3 4 -6 -2 -5 -13z"/>
<path d="M1800 1145 c0 -8 7 -15 15 -15 8 0 15 7 15 15 0 8 -7 15 -15 15 -8 0
-15 -7 -15 -15z"/>
<path d="M1870 1141 c0 -27 31 -36 47 -15 10 14 10 19 0 26 -7 4 -13 2 -15 -7
-2 -9 -8 -13 -13 -9 -5 3 -7 10 -4 15 4 5 1 9 -4 9 -6 0 -11 -9 -11 -19z"/>
<path d="M1960 1120 c0 -5 5 -10 10 -10 6 0 10 5 10 10 0 6 -4 10 -10 10 -5 0
-10 -4 -10 -10z"/>
<path d="M2017 1117 c4 -7 8 -31 8 -55 0 -32 -4 -44 -17 -48 -22 -7 -23 -27
-3 -44 18 -15 9 -70 -14 -87 -15 -11 -14 -13 1 -29 14 -14 20 -15 32 -5 11 9
13 26 9 64 -4 41 -2 56 11 66 12 10 13 17 5 27 -12 15 -2 104 12 104 5 0 9 4
9 8 0 5 -14 9 -30 10 -21 0 -28 -3 -23 -11z m13 -121 c0 -3 -4 -8 -10 -11 -5
-3 -10 -1 -10 4 0 6 5 11 10 11 6 0 10 -2 10 -4z"/>
<path d="M1735 1111 c-6 -11 9 -23 19 -14 9 9 7 23 -3 23 -6 0 -12 -4 -16 -9z"/>
<path d="M2230 1110 c0 -5 5 -10 10 -10 6 0 10 5 10 10 0 6 -4 10 -10 10 -5 0
-10 -4 -10 -10z"/>
<path d="M1287 1090 c3 -11 7 -20 9 -20 2 0 4 9 4 20 0 11 -4 20 -9 20 -5 0
-7 -9 -4 -20z"/>
<path d="M2096 1101 c-4 -5 -2 -12 3 -15 5 -4 12 -2 15 3 4 5 2 12 -3 15 -5 4
-12 2 -15 -3z"/>
<path d="M1897 1093 c-4 -3 -7 -21 -7 -39 0 -18 -4 -36 -10 -39 -17 -11 -12
-47 6 -43 23 4 43 39 27 45 -9 3 -11 17 -7 44 6 38 4 46 -9 32z"/>
<path d="M1741 1064 c0 -11 3 -14 6 -6 3 7 2 16 -1 19 -3 4 -6 -2 -5 -13z"/>
<path d="M2170 1051 c0 -16 -7 -34 -15 -41 -13 -11 -14 -15 -1 -29 8 -9 16
-25 19 -36 4 -16 5 -15 6 6 0 14 6 30 13 37 9 9 9 15 1 23 -7 7 -9 25 -6 40 3
18 1 29 -6 29 -6 0 -11 -13 -11 -29z"/>
<path d="M1286 1053 c-11 -11 -6 -23 8 -23 8 0 17 4 20 9 7 10 -19 23 -28 14z"/>
<path d="M1809 1029 c-16 -18 -26 -36 -22 -43 5 -7 9 -5 11 6 3 14 7 15 22 6
24 -15 50 5 50 38 0 34 -26 31 -61 -7z m44 -4 c-5 -16 -33 -21 -33 -7 0 13 22
32 31 26 5 -2 6 -11 2 -19z"/>
<path d="M1195 1020 c4 -14 2 -20 -9 -20 -10 0 -13 6 -9 17 4 11 3 14 -5 9
-17 -11 -15 -33 5 -40 21 -8 48 17 40 38 -9 24 -30 20 -22 -4z"/>
<path d="M1725 1031 c-7 -12 12 -24 25 -16 11 7 4 25 -10 25 -5 0 -11 -4 -15
-9z"/>
<path d="M2230 1011 c0 -6 5 -13 10 -16 6 -3 10 1 10 9 0 9 -4 16 -10 16 -5 0
-10 -4 -10 -9z"/>
<path d="M1290 1001 c0 -6 5 -13 10 -16 6 -3 10 1 10 9 0 9 -4 16 -10 16 -5 0
-10 -4 -10 -9z"/>
<path d="M1950 995 c0 -8 5 -15 10 -15 6 0 10 7 10 15 0 8 -4 15 -10 15 -5 0
-10 -7 -10 -15z"/>
<path d="M2097 1003 c-12 -11 -8 -23 8 -23 8 0 15 7 15 15 0 16 -12 20 -23 8z"/>
<path d="M1725 991 c-3 -5 -1 -12 5 -16 5 -3 10 1 10 9 0 18 -6 21 -15 7z"/>
<path d="M1287 953 c-3 -5 1 -13 8 -20 10 -10 14 -9 18 1 8 21 -15 37 -26 19z"/>
<path d="M1725 949 c-4 -6 -3 -15 3 -21 6 -6 11 -4 15 6 7 18 -9 31 -18 15z"/>
<path d="M1884 931 c-4 -16 -14 -38 -25 -49 -17 -19 -17 -21 0 -36 16 -15 19
-15 34 2 19 20 22 42 8 42 -6 0 -7 16 -4 35 7 42 -5 47 -13 6z m6 -61 c0 -5
-5 -10 -11 -10 -5 0 -7 5 -4 10 3 6 8 10 11 10 2 0 4 -4 4 -10z"/>
<path d="M1300 890 c0 -19 3 -21 12 -12 9 9 9 15 0 24 -9 9 -12 7 -12 -12z"/>
<path d="M1720 900 c0 -5 5 -10 10 -10 6 0 10 5 10 10 0 6 -4 10 -10 10 -5 0
-10 -4 -10 -10z"/>
<path d="M2144 899 c-3 -6 -2 -15 4 -21 12 -12 55 8 47 23 -8 12 -42 12 -51
-2z"/>
<path d="M2086 892 c-3 -6 -1 -14 5 -17 15 -10 25 3 12 16 -7 7 -13 7 -17 1z"/>
<path d="M1936 881 c-4 -5 -2 -12 3 -15 5 -4 12 -2 15 3 4 5 2 12 -3 15 -5 4
-12 2 -15 -3z"/>
<path d="M1717 874 c-3 -3 -3 -12 0 -20 4 -11 9 -12 19 -3 8 6 11 15 8 20 -6
10 -18 12 -27 3z"/>
<path d="M1787 874 c-8 -8 1 -24 14 -24 5 0 9 7 9 15 0 15 -12 20 -23 9z"/>
<path d="M1286 851 c-3 -5 0 -14 8 -20 10 -9 15 -8 19 3 9 22 -15 37 -27 17z"/>
<path d="M670 790 c-71 -38 -111 -69 -89 -70 9 0 23 8 30 17 8 9 46 31 84 49
39 18 61 33 50 33 -11 0 -45 -13 -75 -29z"/>
<path d="M1877 813 c-11 -10 -8 -43 3 -43 6 0 10 11 10 25 0 26 -2 29 -13 18z"/>
<path d="M1290 784 c0 -8 5 -12 10 -9 6 3 10 10 10 16 0 5 -4 9 -10 9 -5 0
-10 -7 -10 -16z"/>
<path d="M1577 760 c-35 -37 -91 -41 -131 -9 -37 29 -33 6 5 -25 48 -40 110
-34 166 16 21 20 21 48 -1 48 -6 -1 -24 -14 -39 -30z"/>
<path d="M2077 748 c17 -18 36 -43 42 -55 7 -13 17 -23 23 -23 6 0 3 12 -7 28
-24 38 -67 82 -79 82 -5 0 4 -15 21 -32z"/>
<path d="M1860 746 c-10 -13 -10 -19 0 -31 7 -8 16 -15 20 -15 15 0 20 34 7
47 -12 12 -16 12 -27 -1z"/>
<path d="M1937 754 c-8 -8 1 -24 14 -24 5 0 9 7 9 15 0 15 -12 20 -23 9z"/>
<path d="M804 706 c-47 -31 -76 -66 -55 -66 5 0 11 7 14 15 4 8 31 28 62 46
30 17 55 33 55 35 0 12 -31 -1 -76 -30z"/>
<path d="M1510 650 c0 -22 5 -40 10 -40 6 0 10 18 10 40 0 22 -4 40 -10 40 -5
0 -10 -18 -10 -40z"/>
<path d="M899 623 c-46 -49 -83 -103 -70 -103 5 0 19 16 31 35 12 19 40 50 63
70 22 19 34 35 26 35 -8 0 -31 -17 -50 -37z"/>
<path d="M1871 613 c-15 -16 -40 -50 -56 -78 -78 -137 -161 -196 -273 -198
-56 0 -77 5 -128 31 -73 37 -141 87 -211 155 -29 28 -55 48 -58 45 -9 -9 125
-128 197 -175 92 -60 146 -77 218 -70 112 10 186 66 269 206 22 38 53 78 68
90 16 11 22 21 15 21 -8 0 -26 -12 -41 -27z"/>
<path d="M1546 583 c-4 -4 -13 -8 -20 -8 -7 0 -29 -20 -48 -45 -29 -38 -40
-45 -74 -48 -54 -4 -93 32 -85 81 0 4 -4 7 -10 7 -8 0 -10 -13 -6 -37 9 -51
49 -82 106 -83 39 0 49 5 83 40 21 23 38 49 38 58 0 14 3 13 18 -5 50 -65 124
-90 170 -57 37 26 69 104 42 104 -5 0 -10 -8 -10 -19 0 -28 -39 -71 -65 -71
-21 0 -95 64 -95 82 0 10 -34 10 -44 1z"/>
</g>
</svg>
